<mxfile host="app.diagrams.net" modified="2022-05-12T03:00:03.361Z" agent="5.0 (Macintosh; Intel Mac OS X 10_15_7) AppleWebKit/605.1.15 (KHTML, like Gecko) Version/15.4 Safari/605.1.15" etag="hH1BXcT6RpVW7RbnfXpL" version="18.0.2" type="github">
  <diagram id="RlaInY9ujAjlM6v5Hgkh" name="Page-1">
    <mxGraphModel dx="775" dy="645" grid="1" gridSize="10" guides="1" tooltips="1" connect="1" arrows="1" fold="1" page="1" pageScale="1" pageWidth="827" pageHeight="1169" math="0" shadow="0">
      <root>
        <mxCell id="0" />
        <mxCell id="1" parent="0" />
        <mxCell id="cmIVJcZLA25GFp2kmGqh-9" style="rounded=0;orthogonalLoop=1;jettySize=auto;html=1;exitX=0.5;exitY=1;exitDx=0;exitDy=0;entryX=0;entryY=0;entryDx=0;entryDy=0;" edge="1" parent="1" source="cmIVJcZLA25GFp2kmGqh-2" target="cmIVJcZLA25GFp2kmGqh-7">
          <mxGeometry relative="1" as="geometry" />
        </mxCell>
        <mxCell id="cmIVJcZLA25GFp2kmGqh-2" value="Flatten IJTAG Network" style="shape=parallelogram;perimeter=parallelogramPerimeter;whiteSpace=wrap;html=1;fixedSize=1;" vertex="1" parent="1">
          <mxGeometry x="110" y="120" width="200" height="60" as="geometry" />
        </mxCell>
        <mxCell id="cmIVJcZLA25GFp2kmGqh-6" style="edgeStyle=orthogonalEdgeStyle;rounded=0;orthogonalLoop=1;jettySize=auto;html=1;exitX=0.5;exitY=1;exitDx=0;exitDy=0;" edge="1" parent="1" source="cmIVJcZLA25GFp2kmGqh-3" target="cmIVJcZLA25GFp2kmGqh-5">
          <mxGeometry relative="1" as="geometry" />
        </mxCell>
        <mxCell id="cmIVJcZLA25GFp2kmGqh-3" value="instrument-level PDL" style="shape=parallelogram;perimeter=parallelogramPerimeter;whiteSpace=wrap;html=1;fixedSize=1;" vertex="1" parent="1">
          <mxGeometry x="300" y="120" width="200" height="60" as="geometry" />
        </mxCell>
        <mxCell id="cmIVJcZLA25GFp2kmGqh-10" style="edgeStyle=none;rounded=0;orthogonalLoop=1;jettySize=auto;html=1;exitX=0.5;exitY=1;exitDx=0;exitDy=0;" edge="1" parent="1" source="cmIVJcZLA25GFp2kmGqh-5" target="cmIVJcZLA25GFp2kmGqh-7">
          <mxGeometry relative="1" as="geometry" />
        </mxCell>
        <mxCell id="cmIVJcZLA25GFp2kmGqh-5" value="PDL Parser" style="rounded=1;whiteSpace=wrap;html=1;fillColor=#f8cecc;strokeColor=#b85450;" vertex="1" parent="1">
          <mxGeometry x="340" y="210" width="120" height="60" as="geometry" />
        </mxCell>
        <mxCell id="cmIVJcZLA25GFp2kmGqh-12" style="edgeStyle=none;rounded=0;orthogonalLoop=1;jettySize=auto;html=1;exitX=0.5;exitY=1;exitDx=0;exitDy=0;entryX=0.5;entryY=0;entryDx=0;entryDy=0;" edge="1" parent="1" source="cmIVJcZLA25GFp2kmGqh-7" target="cmIVJcZLA25GFp2kmGqh-13">
          <mxGeometry relative="1" as="geometry">
            <mxPoint x="320" y="440" as="targetPoint" />
          </mxGeometry>
        </mxCell>
        <mxCell id="cmIVJcZLA25GFp2kmGqh-15" style="edgeStyle=none;rounded=0;orthogonalLoop=1;jettySize=auto;html=1;exitX=0.5;exitY=1;exitDx=0;exitDy=0;entryX=0.5;entryY=0;entryDx=0;entryDy=0;" edge="1" parent="1" source="cmIVJcZLA25GFp2kmGqh-7" target="cmIVJcZLA25GFp2kmGqh-14">
          <mxGeometry relative="1" as="geometry" />
        </mxCell>
        <mxCell id="cmIVJcZLA25GFp2kmGqh-7" value="PDLRetargeting" style="rounded=1;whiteSpace=wrap;html=1;fillColor=#fff2cc;strokeColor=#d6b656;" vertex="1" parent="1">
          <mxGeometry x="340" y="330" width="120" height="60" as="geometry" />
        </mxCell>
        <mxCell id="cmIVJcZLA25GFp2kmGqh-11" style="edgeStyle=none;rounded=0;orthogonalLoop=1;jettySize=auto;html=1;exitX=0.5;exitY=1;exitDx=0;exitDy=0;entryX=1;entryY=0;entryDx=0;entryDy=0;" edge="1" parent="1" source="cmIVJcZLA25GFp2kmGqh-8" target="cmIVJcZLA25GFp2kmGqh-7">
          <mxGeometry relative="1" as="geometry" />
        </mxCell>
        <mxCell id="cmIVJcZLA25GFp2kmGqh-8" value="top-level iCall Command" style="shape=parallelogram;perimeter=parallelogramPerimeter;whiteSpace=wrap;html=1;fixedSize=1;" vertex="1" parent="1">
          <mxGeometry x="490" y="120" width="120" height="60" as="geometry" />
        </mxCell>
        <mxCell id="cmIVJcZLA25GFp2kmGqh-13" value="top-level&lt;br&gt;retargeted&lt;br&gt;PDL" style="shape=parallelogram;perimeter=parallelogramPerimeter;whiteSpace=wrap;html=1;fixedSize=1;" vertex="1" parent="1">
          <mxGeometry x="270" y="460" width="120" height="60" as="geometry" />
        </mxCell>
        <mxCell id="cmIVJcZLA25GFp2kmGqh-14" value="TestBench.v" style="shape=parallelogram;perimeter=parallelogramPerimeter;whiteSpace=wrap;html=1;fixedSize=1;" vertex="1" parent="1">
          <mxGeometry x="414" y="460" width="120" height="60" as="geometry" />
        </mxCell>
        <mxCell id="cmIVJcZLA25GFp2kmGqh-18" style="edgeStyle=none;rounded=0;orthogonalLoop=1;jettySize=auto;html=1;exitX=0.5;exitY=1;exitDx=0;exitDy=0;" edge="1" parent="1" source="cmIVJcZLA25GFp2kmGqh-16" target="cmIVJcZLA25GFp2kmGqh-17">
          <mxGeometry relative="1" as="geometry" />
        </mxCell>
        <mxCell id="cmIVJcZLA25GFp2kmGqh-16" value="开始" style="rounded=1;whiteSpace=wrap;html=1;" vertex="1" parent="1">
          <mxGeometry x="284" y="570" width="120" height="60" as="geometry" />
        </mxCell>
        <mxCell id="cmIVJcZLA25GFp2kmGqh-20" style="edgeStyle=none;rounded=0;orthogonalLoop=1;jettySize=auto;html=1;exitX=0.5;exitY=1;exitDx=0;exitDy=0;" edge="1" parent="1" source="cmIVJcZLA25GFp2kmGqh-17" target="cmIVJcZLA25GFp2kmGqh-19">
          <mxGeometry relative="1" as="geometry" />
        </mxCell>
        <mxCell id="cmIVJcZLA25GFp2kmGqh-17" value="读取IJTAG网络结构" style="shape=parallelogram;perimeter=parallelogramPerimeter;whiteSpace=wrap;html=1;fixedSize=1;" vertex="1" parent="1">
          <mxGeometry x="274" y="662" width="140" height="60" as="geometry" />
        </mxCell>
        <mxCell id="cmIVJcZLA25GFp2kmGqh-24" style="edgeStyle=none;rounded=0;orthogonalLoop=1;jettySize=auto;html=1;exitX=0.5;exitY=1;exitDx=0;exitDy=0;entryX=0.5;entryY=0;entryDx=0;entryDy=0;" edge="1" parent="1" source="cmIVJcZLA25GFp2kmGqh-19" target="cmIVJcZLA25GFp2kmGqh-23">
          <mxGeometry relative="1" as="geometry" />
        </mxCell>
        <mxCell id="cmIVJcZLA25GFp2kmGqh-19" value="读取PDL文件" style="shape=parallelogram;perimeter=parallelogramPerimeter;whiteSpace=wrap;html=1;fixedSize=1;" vertex="1" parent="1">
          <mxGeometry x="274" y="754" width="140" height="60" as="geometry" />
        </mxCell>
        <mxCell id="cmIVJcZLA25GFp2kmGqh-26" style="edgeStyle=none;rounded=0;orthogonalLoop=1;jettySize=auto;html=1;exitX=0.5;exitY=1;exitDx=0;exitDy=0;" edge="1" parent="1" source="cmIVJcZLA25GFp2kmGqh-23" target="cmIVJcZLA25GFp2kmGqh-25">
          <mxGeometry relative="1" as="geometry" />
        </mxCell>
        <mxCell id="cmIVJcZLA25GFp2kmGqh-23" value="PDL Parse" style="rounded=0;whiteSpace=wrap;html=1;" vertex="1" parent="1">
          <mxGeometry x="284" y="846" width="120" height="60" as="geometry" />
        </mxCell>
        <mxCell id="cmIVJcZLA25GFp2kmGqh-27" style="edgeStyle=none;rounded=0;orthogonalLoop=1;jettySize=auto;html=1;exitX=0.5;exitY=1;exitDx=0;exitDy=0;" edge="1" parent="1" source="cmIVJcZLA25GFp2kmGqh-25" target="cmIVJcZLA25GFp2kmGqh-28">
          <mxGeometry relative="1" as="geometry">
            <mxPoint x="344" y="1040" as="targetPoint" />
          </mxGeometry>
        </mxCell>
        <mxCell id="cmIVJcZLA25GFp2kmGqh-25" value="重定向iCall命令" style="rounded=0;whiteSpace=wrap;html=1;" vertex="1" parent="1">
          <mxGeometry x="284" y="938" width="120" height="60" as="geometry" />
        </mxCell>
        <mxCell id="cmIVJcZLA25GFp2kmGqh-28" value="重定向" style="rounded=0;whiteSpace=wrap;html=1;" vertex="1" parent="1">
          <mxGeometry x="284" y="1030" width="120" height="60" as="geometry" />
        </mxCell>
        <mxCell id="cmIVJcZLA25GFp2kmGqh-32" style="edgeStyle=none;rounded=0;orthogonalLoop=1;jettySize=auto;html=1;exitX=0.5;exitY=1;exitDx=0;exitDy=0;" edge="1" parent="1" source="cmIVJcZLA25GFp2kmGqh-29" target="cmIVJcZLA25GFp2kmGqh-31">
          <mxGeometry relative="1" as="geometry" />
        </mxCell>
        <mxCell id="cmIVJcZLA25GFp2kmGqh-29" value="获取当前的active_path" style="rounded=0;whiteSpace=wrap;html=1;fillColor=#a20025;fontColor=#ffffff;strokeColor=#6F0000;" vertex="1" parent="1">
          <mxGeometry x="510" y="790" width="120" height="60" as="geometry" />
        </mxCell>
        <mxCell id="cmIVJcZLA25GFp2kmGqh-33" style="edgeStyle=none;rounded=0;orthogonalLoop=1;jettySize=auto;html=1;exitX=0.5;exitY=1;exitDx=0;exitDy=0;entryX=0.5;entryY=0;entryDx=0;entryDy=0;" edge="1" parent="1" source="cmIVJcZLA25GFp2kmGqh-31" target="cmIVJcZLA25GFp2kmGqh-34">
          <mxGeometry relative="1" as="geometry">
            <mxPoint x="570" y="980" as="targetPoint" />
          </mxGeometry>
        </mxCell>
        <mxCell id="cmIVJcZLA25GFp2kmGqh-31" value="找到对应的iProc" style="rounded=0;whiteSpace=wrap;html=1;" vertex="1" parent="1">
          <mxGeometry x="510" y="880" width="120" height="60" as="geometry" />
        </mxCell>
        <mxCell id="cmIVJcZLA25GFp2kmGqh-35" style="edgeStyle=none;rounded=0;orthogonalLoop=1;jettySize=auto;html=1;exitX=1;exitY=0.5;exitDx=0;exitDy=0;" edge="1" parent="1" source="cmIVJcZLA25GFp2kmGqh-34" target="cmIVJcZLA25GFp2kmGqh-37">
          <mxGeometry relative="1" as="geometry">
            <mxPoint x="690" y="1010" as="targetPoint" />
          </mxGeometry>
        </mxCell>
        <mxCell id="cmIVJcZLA25GFp2kmGqh-36" style="edgeStyle=none;rounded=0;orthogonalLoop=1;jettySize=auto;html=1;exitX=0.5;exitY=1;exitDx=0;exitDy=0;" edge="1" parent="1" source="cmIVJcZLA25GFp2kmGqh-34">
          <mxGeometry relative="1" as="geometry">
            <mxPoint x="570" y="1070" as="targetPoint" />
          </mxGeometry>
        </mxCell>
        <mxCell id="cmIVJcZLA25GFp2kmGqh-34" value="iApply?" style="rhombus;whiteSpace=wrap;html=1;" vertex="1" parent="1">
          <mxGeometry x="525" y="970" width="90" height="80" as="geometry" />
        </mxCell>
        <mxCell id="cmIVJcZLA25GFp2kmGqh-37" value="构造iApply组" style="rounded=0;whiteSpace=wrap;html=1;" vertex="1" parent="1">
          <mxGeometry x="700" y="980" width="120" height="60" as="geometry" />
        </mxCell>
        <mxCell id="cmIVJcZLA25GFp2kmGqh-38" value="iApply组是否在Active Path上" style="rhombus;whiteSpace=wrap;html=1;" vertex="1" parent="1">
          <mxGeometry x="515" y="1070" width="110" height="80" as="geometry" />
        </mxCell>
      </root>
    </mxGraphModel>
  </diagram>
</mxfile>
